<?xml version="1.0" standalone="no"?>
<!DOCTYPE svg PUBLIC "-//W3C//DTD SVG 20010904//EN"
 "http://www.w3.org/TR/2001/REC-SVG-20010904/DTD/svg10.dtd">
<svg version="1.0" xmlns="http://www.w3.org/2000/svg"
 width="82.000000pt" height="82.000000pt" viewBox="0 0 82.000000 82.000000"
 preserveAspectRatio="xMidYMid meet">
<metadata>
Created by potrace 1.14, written by Peter Selinger 2001-2017
</metadata>
<g transform="translate(0.000000,82.000000) scale(0.100000,-0.100000)"
fill="#000000" stroke="none">
<path d="M0 410 l0 -410 410 0 410 0 0 410 0 410 -410 0 -410 0 0 -410z m395
298 c47 -54 75 -113 75 -158 0 -36 -30 -113 -48 -124 -13 -8 -90 79 -108 121
-8 18 -14 51 -14 75 0 41 34 128 50 128 5 0 25 -19 45 -42z m-140 -222 c42
-18 127 -95 119 -108 -11 -18 -88 -48 -124 -48 -50 0 -108 31 -158 82 l-43 45
43 22 c50 24 114 27 163 7z m479 0 c19 -8 37 -20 41 -27 12 -18 -83 -105 -132
-119 -52 -16 -123 -6 -158 22 l-26 21 37 38 c71 73 161 97 238 65z m-101 -377
c-7 -7 -34 -14 -61 -17 -47 -4 -52 -2 -95 37 -24 22 -49 41 -54 41 -5 0 -20
-12 -34 -26 -48 -52 -109 -67 -164 -42 l-26 12 113 113 113 113 110 -110 c83
-83 107 -112 98 -121z"/>
</g>
</svg>
